<?xml version="1.0" standalone="no"?>
<!DOCTYPE svg PUBLIC "-//W3C//DTD SVG 20010904//EN"
 "http://www.w3.org/TR/2001/REC-SVG-20010904/DTD/svg10.dtd">
<svg version="1.0" xmlns="http://www.w3.org/2000/svg"
 width="512.000000pt" height="512.000000pt" viewBox="0 0 512.000000 512.000000"
 preserveAspectRatio="xMidYMid meet">
<metadata>
Created by potrace 1.14, written by Peter Selinger 2001-2017
</metadata>
<g transform="translate(0.000000,512.000000) scale(0.100000,-0.100000)"
fill="#000000" stroke="none">
<path d="M2326 5109 c-133 -14 -179 -38 -218 -112 -19 -36 -23 -62 -26 -188
l-4 -146 -72 -18 c-165 -42 -352 -118 -509 -208 l-88 -50 -98 96 c-54 53 -114
104 -134 112 -48 20 -120 19 -160 -1 -105 -54 -437 -386 -491 -491 -20 -40
-21 -112 -1 -160 8 -20 59 -80 112 -134 l96 -98 -50 -88 c-90 -157 -166 -344
-208 -509 l-18 -72 -146 -4 c-154 -4 -199 -16 -243 -65 -45 -49 -68 -189 -68
-413 0 -224 23 -364 68 -413 44 -49 89 -61 243 -65 l146 -4 18 -72 c42 -165
118 -352 208 -509 l50 -88 -96 -98 c-53 -54 -104 -114 -112 -134 -20 -48 -19
-120 1 -160 54 -105 386 -437 491 -491 40 -20 112 -21 160 -1 20 8 80 59 134
111 l98 96 78 -45 c152 -87 356 -170 519 -212 l72 -18 4 -146 c4 -154 16 -199
65 -243 49 -45 189 -68 413 -68 224 0 364 23 413 68 49 44 61 89 65 243 l4
146 72 18 c165 42 352 118 509 208 l88 50 98 -96 c54 -53 114 -104 134 -112
48 -20 120 -19 160 1 105 54 437 386 491 491 20 40 21 112 1 160 -8 20 -59 80
-112 134 l-96 98 50 88 c90 157 166 344 208 509 l18 72 146 4 c154 4 199 16
243 65 45 49 68 189 68 413 0 224 -23 364 -68 413 -44 49 -89 61 -243 65
l-146 4 -18 72 c-42 165 -118 352 -208 509 l-50 88 96 98 c53 54 104 114 112
134 20 48 19 120 -1 160 -54 105 -386 437 -491 491 -40 20 -112 21 -160 1 -20
-8 -80 -59 -134 -111 l-98 -96 -78 45 c-152 87 -356 170 -519 212 l-72 18 -4
146 c-3 124 -7 152 -25 186 -41 78 -85 99 -232 114 -118 12 -339 12 -455 0z
m413 -149 c63 -6 120 -15 128 -21 10 -9 13 -50 13 -169 0 -86 5 -171 10 -187
14 -38 31 -46 155 -77 197 -49 381 -125 553 -229 52 -31 102 -59 112 -62 31
-10 69 18 185 134 60 61 117 111 127 111 54 0 438 -384 438 -438 0 -10 -50
-67 -111 -127 -116 -116 -144 -154 -134 -185 3 -10 31 -60 62 -112 104 -172
180 -356 229 -553 31 -124 39 -141 77 -155 16 -5 101 -10 187 -10 122 0 160
-3 169 -14 22 -26 35 -292 23 -452 -6 -80 -17 -152 -23 -160 -9 -11 -47 -14
-169 -14 -86 0 -171 -5 -187 -10 -38 -14 -46 -31 -77 -155 -50 -202 -126 -383
-235 -563 -51 -84 -62 -108 -56 -130 4 -15 58 -79 126 -147 65 -67 119 -128
119 -138 0 -52 -385 -437 -437 -437 -9 0 -71 54 -138 119 -68 68 -132 122
-147 126 -22 6 -46 -5 -130 -56 -170 -103 -365 -186 -540 -229 -46 -11 -100
-25 -121 -31 -58 -16 -67 -46 -67 -237 0 -121 -3 -162 -13 -171 -25 -20 -294
-33 -454 -22 -80 6 -152 16 -160 22 -10 9 -13 50 -13 171 0 191 -9 221 -67
237 -21 6 -75 20 -121 31 -175 43 -370 126 -540 229 -84 51 -108 62 -130 56
-15 -4 -79 -58 -147 -126 -67 -65 -129 -119 -138 -119 -52 0 -437 385 -437
437 0 10 54 71 119 138 68 68 122 132 126 147 6 22 -5 46 -56 130 -103 170
-186 365 -229 540 -11 46 -25 100 -31 121 -16 58 -46 67 -237 67 -121 0 -162
3 -171 13 -20 25 -33 294 -22 454 6 80 16 152 22 160 9 10 50 13 171 13 191 0
221 9 237 67 6 21 20 75 31 121 43 175 126 370 229 540 51 84 62 108 56 130
-4 15 -58 79 -126 147 -65 67 -119 128 -119 138 0 52 385 437 437 437 9 0 71
-54 138 -119 68 -68 132 -122 147 -126 22 -6 46 5 130 56 180 109 361 185 563
235 124 31 141 39 155 77 5 16 10 101 10 187 0 122 3 160 14 169 30 25 303 37
485 21z"/>
<path d="M2405 4154 c-406 -45 -785 -239 -1047 -539 -186 -213 -308 -460 -369
-750 -33 -157 -34 -449 -1 -608 38 -183 105 -360 188 -500 68 -113 139 -206
168 -221 49 -24 105 10 106 64 0 15 -29 67 -70 129 -121 177 -193 342 -236
541 -27 122 -27 458 0 579 61 278 193 525 386 722 259 263 574 404 968 433
l62 4 0 -191 0 -191 -134 -133 -134 -133 -113 1 -114 0 -30 47 c-18 27 -50 59
-79 77 -89 54 -215 36 -287 -42 -82 -88 -86 -222 -9 -315 96 -116 289 -104
371 22 l31 47 121 5 c80 4 136 11 162 22 53 23 318 285 348 346 20 41 22 63
25 236 l4 191 76 -12 c43 -7 96 -18 119 -24 l42 -11 3 -273 c3 -251 5 -275 23
-306 26 -44 62 -70 111 -81 21 -5 192 -10 380 -10 l341 0 45 -97 c25 -54 49
-108 53 -120 l6 -23 -488 1 -488 0 -30 47 c-44 69 -112 107 -189 107 -193 0
-305 -206 -200 -365 92 -139 306 -136 392 5 l27 44 512 1 511 0 11 -50 c6 -28
14 -82 17 -120 l7 -69 -434 -3 c-392 -3 -438 -5 -474 -21 -24 -11 -97 -75
-181 -157 l-141 -140 -154 0 -154 0 -20 36 c-44 82 -152 132 -247 114 -98 -19
-167 -86 -189 -184 -35 -160 117 -312 277 -277 65 15 126 58 156 110 l22 39
166 4 c136 3 171 7 200 22 19 10 99 81 176 157 l142 139 427 0 428 0 -7 -70
c-3 -38 -11 -92 -17 -119 l-10 -50 -337 -3 c-298 -3 -342 -5 -377 -21 -56 -25
-558 -526 -588 -587 -20 -42 -22 -61 -25 -276 l-4 -232 -45 -5 c-53 -6 -223 7
-299 23 l-52 11 -4 217 c-3 179 -7 224 -21 257 -12 26 -92 114 -233 255 -157
159 -217 225 -224 250 -6 19 -10 89 -10 156 l0 121 50 32 c178 115 132 385
-74 431 -104 23 -209 -29 -262 -130 -27 -51 -25 -152 3 -206 23 -42 70 -88
109 -106 22 -10 22 -17 26 -177 3 -139 6 -172 22 -206 12 -23 110 -132 238
-261 l218 -220 0 -183 0 -182 -22 6 c-63 19 -225 104 -324 171 -63 42 -122 74
-136 74 -66 0 -92 -89 -40 -137 39 -36 206 -145 282 -183 241 -121 513 -179
789 -166 755 33 1360 564 1507 1321 25 128 25 414 0 549 -45 246 -138 465
-279 661 -61 85 -73 94 -114 95 -59 0 -94 -68 -58 -116 8 -10 15 -22 15 -26 0
-5 -130 -8 -290 -8 l-290 0 0 225 c0 124 2 225 5 225 19 0 196 -99 275 -154
57 -39 105 -66 121 -66 37 0 69 34 69 73 -1 41 -9 51 -95 113 -189 138 -409
232 -655 279 -83 16 -355 27 -435 19z m1510 -2096 c-4 -13 -29 -69 -56 -125
-182 -381 -520 -661 -928 -768 -145 -39 -131 -59 -131 187 l0 213 257 257 258
258 303 0 303 0 -6 -22z"/>
</g>
</svg>
